<svg width="69" height="172" viewBox="0 0 69 172" fill="none" xmlns="http://www.w3.org/2000/svg">
<circle cx="34.5" cy="137.5" r="34.5" fill="#EDF2F9"/>
<ellipse cx="35" cy="137.5" rx="29" ry="29.5" fill="#E2E8F0"/>
<circle cx="34.5" cy="137.5" r="23.5" fill="#CBD5E1"/>
<circle cx="34.5" cy="137.5" r="16.5" fill="#94A3B8"/>
<path d="M35 142L40.7735 132H29.2265L35 142ZM34 0V1.97222H36V0H34ZM34 5.91667V9.86111H36V5.91667H34ZM34 13.8056V17.75H36V13.8056H34ZM34 21.6944V25.6389H36V21.6944H34ZM34 29.5833V33.5278H36V29.5833H34ZM34 37.4722V41.4167H36V37.4722H34ZM34 45.3611V49.3055H36V45.3611H34ZM34 53.25V57.1944H36V53.25H34ZM34 61.1389V65.0833H36V61.1389H34ZM34 69.0278V72.9722H36V69.0278H34ZM34 76.9166V80.8611H36V76.9166H34ZM34 84.8055V88.75H36V84.8055H34ZM34 92.6944V96.6389H36V92.6944H34ZM34 100.583V104.528H36V100.583H34ZM34 108.472V112.417H36V108.472H34ZM34 116.361V120.306H36V116.361H34ZM34 124.25V128.194H36V124.25H34ZM34 132.139V136.083H36V132.139H34Z" fill="black"/>
</svg>
