<svg width="290" height="207" viewBox="0 0 290 207" fill="none" xmlns="http://www.w3.org/2000/svg">
<path opacity="0.91" d="M125.158 147.857C125.158 181.507 101.754 207 66.1403 207C30.5263 207 0 178.448 0 127.463C0 64.2413 47.8246 10.197 109.895 0V37.7291C74.2807 44.867 47.8246 70.3596 47.8246 99.931C53.9298 95.8522 62.0702 92.7931 75.2982 92.7931C101.754 92.7931 125.158 112.167 125.158 147.857ZM290 147.857C290 181.507 265.579 207 229.965 207C195.368 207 163.825 178.448 163.825 127.463C163.825 64.2413 211.649 10.197 274.737 0V37.7291C239.123 44.867 212.667 70.3596 212.667 98.9113C218.772 94.8325 227.93 92.7931 240.14 92.7931C266.596 92.7931 290 112.167 290 147.857Z" fill="#E2E8F0"/>
</svg>
