<svg width="18" height="18" viewBox="0 0 18 18" fill="none" xmlns="http://www.w3.org/2000/svg">
<path d="M9.09397 0.519531C4.49308 0.519531 0.763672 4.24964 0.763672 8.84983C0.763672 13.4507 4.49308 17.1801 9.09397 17.1801C13.6942 17.1801 17.4243 13.45 17.4243 8.84983C17.4243 4.24964 13.6942 0.519531 9.09397 0.519531ZM7.05321 11.0868C7.05321 11.537 6.68838 11.9011 6.23888 11.9011C5.78867 11.9011 5.42455 11.537 5.42455 11.0868V7.61493C5.42455 7.16472 5.78867 6.79989 6.23888 6.79989C6.68838 6.79989 7.05321 7.16472 7.05321 7.61493V11.0868ZM12.8057 11.0282C12.8057 11.6647 12.4339 11.8926 11.7973 11.8926H8.86886C8.23236 11.8926 7.71652 11.3768 7.71652 10.7403V7.85979C7.71652 7.85979 7.65937 7.38065 8.19002 6.93044C8.48993 6.67569 8.9352 6.1895 9.24639 5.59957C9.86455 4.42747 10.2343 4.08593 10.5159 4.17766C11.5588 4.51567 11.0374 6.06177 10.7008 6.70745H11.6534C12.2892 6.70745 12.8057 7.22329 12.8057 7.85979V11.0282Z" fill="white"/>
</svg>
