<svg width="604" height="301" viewBox="0 0 604 301" fill="none" xmlns="http://www.w3.org/2000/svg">
<path d="M4.2336 21.7753L0 -6.53933H3.77592L6.92251 16.8315L18.0214 -6.53933H21.6257L25.1156 16.8315L35.814 -6.53933H39.6471L26.2598 21.7753H22.4267L18.9368 -1.37079L8.00952 21.7753H4.2336Z" fill="white" fill-opacity="0.1"/>
<path d="M47.1976 21.7753L42.964 -6.53933H46.7399L49.8865 16.8315L60.9854 -6.53933H64.5897L68.0796 16.8315L78.778 -6.53933H82.6112L69.2238 21.7753H65.3907L61.9008 -1.37079L50.9735 21.7753H47.1976Z" fill="white" fill-opacity="0.1"/>
<path d="M90.1616 21.7753L85.928 -6.53933H89.704L92.8506 16.8315L103.949 -6.53933H107.554L111.044 16.8315L121.742 -6.53933H125.575L112.188 21.7753H108.355L104.865 -1.37079L93.9376 21.7753H90.1616Z" fill="white" fill-opacity="0.1"/>
<path d="M124.784 16.7753H129.304L128.503 21.7753H123.983L124.784 16.7753Z" fill="white" fill-opacity="0.1"/>
<path d="M134.659 21.7753L135.117 19.0786L157.429 -3.2809H139.694L140.209 -6.53933H162.921L162.464 -3.8427L140.323 18.5169H158.859L158.344 21.7753H134.659Z" fill="white" fill-opacity="0.1"/>
<path d="M191.901 7.95505H168.273C168.216 8.51685 168.216 9.07865 168.216 9.64045C168.216 15.1461 172.106 18.9663 177.369 18.9663C182.289 18.9663 185.493 16.8876 186.924 12.7303L190.471 13.4045C188.869 18.6854 183.491 22.2247 176.912 22.2247C169.646 22.2247 164.497 16.8876 164.497 9.80899C164.497 0.258425 170.904 -6.98877 180.115 -6.98877C187.152 -6.98877 192.416 -2.38202 192.416 4.13483C192.416 5.31461 192.187 6.83146 191.901 7.95505ZM179.601 -3.73034C174.509 -3.73034 170.504 -0.415731 168.902 4.69663H188.812C189.04 -0.191013 185.264 -3.73034 179.601 -3.73034Z" fill="white" fill-opacity="0.1"/>
<path d="M194.452 32L200.688 -6.53933H204.292L203.549 -1.98877C205.494 -4.74158 210.014 -6.98877 214.362 -6.98877C222.371 -6.98877 226.261 -1.65169 226.261 5.14606C226.261 14.191 220.712 22.2247 210.872 22.2247C206.009 22.2247 202.176 19.9213 200.574 16.2135L198.056 32H194.452ZM211.215 18.9663C217.851 18.9663 222.485 13.4045 222.485 5.5955C222.485 -0.0224743 219.224 -3.73034 213.732 -3.73034C206.638 -3.73034 201.432 1.83146 201.432 9.64045C201.432 15.2584 205.265 18.9663 211.215 18.9663Z" fill="white" fill-opacity="0.1"/>
<path d="M230.248 21.7753L236.655 -18H240.26L233.852 21.7753H230.248Z" fill="white" fill-opacity="0.1"/>
<path d="M248.211 -18H252.674L251.815 -12.6067H247.353L248.211 -18ZM242.204 21.7753L246.781 -6.53933H250.385L245.808 21.7753H242.204Z" fill="white" fill-opacity="0.1"/>
<path d="M254.16 21.7753L258.737 -6.53933H262.341L261.369 -0.640451C264.115 -4.34832 268.12 -6.98877 272.697 -6.98877C278.589 -6.98877 282.251 -3.05618 281.278 2.89887L278.246 21.7753H274.642L277.617 3.34831C278.303 -0.752811 276.129 -3.73034 271.667 -3.73034C265.831 -3.73034 261.083 1.32584 259.767 9.35955L257.764 21.7753H254.16Z" fill="white" fill-opacity="0.1"/>
<path d="M292.628 -18H297.09L296.232 -12.6067H291.77L292.628 -18ZM286.621 21.7753L291.197 -6.53933H294.802L290.225 21.7753H286.621Z" fill="white" fill-opacity="0.1"/>
<path d="M323.978 -6.53933L312.193 7.2809L319.974 21.7753H315.854L309.676 10.2584L299.893 21.7753H295.545L308.017 7.11236L300.694 -6.53933H304.813L310.534 4.13483L319.63 -6.53933H323.978Z" fill="white" fill-opacity="0.1"/>
<path d="M325.283 21.7753L329.86 -6.53933H333.464L332.491 -0.640451C334.436 -4.34832 337.812 -6.98877 342.389 -6.98877C347.194 -6.98877 350.799 -4.74158 351.028 -0.69663C353.144 -4.29214 356.977 -6.98877 361.268 -6.98877C367.39 -6.98877 370.594 -3.2809 369.621 2.89887L366.589 21.7753H362.985L365.96 3.34831C366.646 -0.865171 364.644 -3.73034 360.181 -3.73034C354.803 -3.73034 351.085 1.10112 349.998 7.67415L347.709 21.7753H344.105L347.08 3.34831C347.767 -0.865171 345.821 -3.73034 341.359 -3.73034C335.981 -3.73034 332.262 1.10112 331.175 7.67415L328.887 21.7753H325.283Z" fill="white" fill-opacity="0.1"/>
<path d="M402.698 7.95505H379.07C379.013 8.51685 379.013 9.07865 379.013 9.64045C379.013 15.1461 382.903 18.9663 388.167 18.9663C393.087 18.9663 396.291 16.8876 397.721 12.7303L401.268 13.4045C399.666 18.6854 394.288 22.2247 387.709 22.2247C380.443 22.2247 375.294 16.8876 375.294 9.80899C375.294 0.258425 381.702 -6.98877 390.913 -6.98877C397.95 -6.98877 403.213 -2.38202 403.213 4.13483C403.213 5.31461 402.984 6.83146 402.698 7.95505ZM390.398 -3.73034C385.306 -3.73034 381.301 -0.415731 379.7 4.69663H399.609C399.838 -0.191013 396.062 -3.73034 390.398 -3.73034Z" fill="white" fill-opacity="0.1"/>
<path d="M419.152 22.2247C411.142 22.2247 407.252 16.8876 407.252 10.0899C407.252 0.988762 413.431 -6.98877 423.271 -6.98877C428.134 -6.98877 431.567 -4.46068 432.997 -1.53933L435.629 -18H439.233L432.825 21.7753H429.221L429.965 17.2247C428.248 19.9775 423.729 22.2247 419.152 22.2247ZM419.781 18.9663C426.932 18.9663 432.139 13.4045 432.139 5.5955C432.139 -0.0224743 428.878 -3.73034 422.871 -3.73034C416.291 -3.73034 411.085 1.83146 411.085 9.64045C411.085 15.2584 414.346 18.9663 419.781 18.9663Z" fill="white" fill-opacity="0.1"/>
<path d="M447.164 -18H451.627L450.768 -12.6067H446.306L447.164 -18ZM441.157 21.7753L445.734 -6.53933H449.338L444.761 21.7753H441.157Z" fill="white" fill-opacity="0.1"/>
<path d="M467.759 -6.98877C474.853 -6.98877 479.545 -2.32584 478.515 3.96629L475.654 21.7753H472.05L472.908 16.5506C470.677 20.0337 466.558 22.2247 461.924 22.2247C456.66 22.2247 452.77 19.0225 452.77 14.6966C452.77 8.74157 457.404 5.65168 468.16 4.64045L474.91 3.96629L475.025 3.23595C475.711 -1.03371 472.107 -3.73034 467.359 -3.73034C462.839 -3.73034 459.349 -1.25843 458.605 2.89887L455.173 2.22472C456.546 -3.33708 461.638 -6.98877 467.759 -6.98877ZM462.725 18.9663C468.903 18.9663 472.794 15.4831 474.052 9.35955L474.453 7L467.931 7.61798C460.036 8.40449 456.546 10.427 456.546 14.3034C456.546 17.2247 458.891 18.9663 462.725 18.9663Z" fill="white" fill-opacity="0.1"/>
<path d="M484.81 16.7753H489.33L488.529 21.7753H484.009L484.81 16.7753Z" fill="white" fill-opacity="0.1"/>
<path d="M508.229 22.2247C500.677 22.2247 495.585 16.7753 495.585 9.41573C495.585 -0.415731 501.993 -6.98877 511.547 -6.98877C517.84 -6.98877 522.932 -2.66292 523.104 2.73034L519.099 3.46067C519.099 -0.303373 515.552 -3.73034 511.032 -3.73034C504.052 -3.73034 499.418 1.38202 499.418 8.96629C499.418 14.5843 503.194 18.9663 508.686 18.9663C513.206 18.9663 516.467 16.7191 517.611 12.8427L521.387 13.5169C519.671 18.9663 514.808 22.2247 508.229 22.2247Z" fill="white" fill-opacity="0.1"/>
<path d="M539.347 22.2247C531.967 22.2247 526.646 17 526.646 9.80899C526.646 0.0898857 533.511 -6.98877 542.78 -6.98877C550.16 -6.98877 555.48 -1.76405 555.48 5.42697C555.48 15.1461 548.558 22.2247 539.347 22.2247ZM539.805 18.9663C546.784 18.9663 551.704 13.4045 551.704 5.82022C551.704 0.314604 547.814 -3.73034 542.322 -3.73034C535.228 -3.73034 530.422 1.83146 530.422 9.41573C530.422 14.9213 534.312 18.9663 539.805 18.9663Z" fill="white" fill-opacity="0.1"/>
<path d="M559.49 21.7753L564.067 -6.53933H567.671L566.698 -0.640451C568.643 -4.34832 572.019 -6.98877 576.596 -6.98877C581.401 -6.98877 585.006 -4.74158 585.234 -0.69663C587.351 -4.29214 591.184 -6.98877 595.475 -6.98877C601.597 -6.98877 604.801 -3.2809 603.828 2.89887L600.796 21.7753H597.192L600.167 3.34831C600.853 -0.865171 598.851 -3.73034 594.388 -3.73034C589.01 -3.73034 585.292 1.10112 584.205 7.67415L581.916 21.7753H578.312L581.287 3.34831C581.974 -0.865171 580.028 -3.73034 575.566 -3.73034C570.188 -3.73034 566.469 1.10112 565.382 7.67415L563.094 21.7753H559.49Z" fill="white" fill-opacity="0.1"/>
<path d="M4.2336 69.7753L0 41.4607H3.77592L6.92252 64.8315L18.0214 41.4607H21.6257L25.1156 64.8315L35.814 41.4607H39.6471L26.2598 69.7753H22.4267L18.9368 46.6292L8.00952 69.7753H4.2336Z" fill="white" fill-opacity="0.2"/>
<path d="M47.1976 69.7753L42.964 41.4607H46.7399L49.8865 64.8315L60.9854 41.4607H64.5897L68.0796 64.8315L78.778 41.4607H82.6112L69.2238 69.7753H65.3907L61.9008 46.6292L50.9735 69.7753H47.1976Z" fill="white" fill-opacity="0.2"/>
<path d="M90.1617 69.7753L85.928 41.4607H89.704L92.8506 64.8315L103.949 41.4607H107.554L111.044 64.8315L121.742 41.4607H125.575L112.188 69.7753H108.355L104.865 46.6292L93.9376 69.7753H90.1617Z" fill="white" fill-opacity="0.2"/>
<path d="M124.784 64.7753H129.304L128.503 69.7753H123.983L124.784 64.7753Z" fill="white" fill-opacity="0.2"/>
<path d="M134.659 69.7753L135.117 67.0786L157.429 44.7191H139.694L140.209 41.4607H162.921L162.464 44.1573L140.323 66.5169H158.859L158.344 69.7753H134.659Z" fill="white" fill-opacity="0.2"/>
<path d="M191.901 55.9551H168.273C168.216 56.5169 168.216 57.0786 168.216 57.6404C168.216 63.1461 172.106 66.9663 177.369 66.9663C182.289 66.9663 185.493 64.8876 186.924 60.7303L190.471 61.4045C188.869 66.6854 183.491 70.2247 176.912 70.2247C169.646 70.2247 164.497 64.8876 164.497 57.809C164.497 48.2584 170.905 41.0112 180.115 41.0112C187.152 41.0112 192.416 45.618 192.416 52.1348C192.416 53.3146 192.187 54.8315 191.901 55.9551ZM179.601 44.2697C174.509 44.2697 170.504 47.5843 168.902 52.6966H188.812C189.04 47.809 185.264 44.2697 179.601 44.2697Z" fill="white" fill-opacity="0.2"/>
<path d="M194.452 80L200.688 41.4607H204.292L203.549 46.0112C205.494 43.2584 210.014 41.0112 214.362 41.0112C222.371 41.0112 226.261 46.3483 226.261 53.1461C226.261 62.191 220.712 70.2247 210.872 70.2247C206.009 70.2247 202.176 67.9213 200.574 64.2135L198.056 80H194.452ZM211.215 66.9663C217.851 66.9663 222.485 61.4045 222.485 53.5955C222.485 47.9775 219.224 44.2697 213.732 44.2697C206.638 44.2697 201.432 49.8315 201.432 57.6404C201.432 63.2584 205.265 66.9663 211.215 66.9663Z" fill="white" fill-opacity="0.2"/>
<path d="M230.248 69.7753L236.655 30H240.26L233.852 69.7753H230.248Z" fill="white" fill-opacity="0.2"/>
<path d="M248.211 30H252.674L251.815 35.3933H247.353L248.211 30ZM242.204 69.7753L246.781 41.4607H250.385L245.808 69.7753H242.204Z" fill="white" fill-opacity="0.2"/>
<path d="M254.16 69.7753L258.737 41.4607H262.341L261.369 47.3595C264.115 43.6517 268.12 41.0112 272.697 41.0112C278.589 41.0112 282.251 44.9438 281.278 50.8989L278.246 69.7753H274.642L277.617 51.3483C278.303 47.2472 276.129 44.2697 271.667 44.2697C265.831 44.2697 261.083 49.3258 259.767 57.3595L257.764 69.7753H254.16Z" fill="white" fill-opacity="0.2"/>
<path d="M292.628 30H297.09L296.232 35.3933H291.77L292.628 30ZM286.621 69.7753L291.198 41.4607H294.802L290.225 69.7753H286.621Z" fill="white" fill-opacity="0.2"/>
<path d="M323.978 41.4607L312.193 55.2809L319.974 69.7753H315.855L309.676 58.2584L299.893 69.7753H295.545L308.017 55.1124L300.694 41.4607H304.813L310.534 52.1348L319.63 41.4607H323.978Z" fill="white" fill-opacity="0.2"/>
<path d="M325.283 69.7753L329.86 41.4607H333.464L332.491 47.3595C334.436 43.6517 337.812 41.0112 342.389 41.0112C347.194 41.0112 350.799 43.2584 351.028 47.3034C353.144 43.7079 356.978 41.0112 361.268 41.0112C367.39 41.0112 370.594 44.7191 369.621 50.8989L366.589 69.7753H362.985L365.96 51.3483C366.646 47.1348 364.644 44.2697 360.181 44.2697C354.804 44.2697 351.085 49.1011 349.998 55.6742L347.709 69.7753H344.105L347.08 51.3483C347.767 47.1348 345.821 44.2697 341.359 44.2697C335.981 44.2697 332.262 49.1011 331.175 55.6742L328.887 69.7753H325.283Z" fill="white" fill-opacity="0.2"/>
<path d="M402.698 55.9551H379.07C379.013 56.5169 379.013 57.0786 379.013 57.6404C379.013 63.1461 382.903 66.9663 388.167 66.9663C393.087 66.9663 396.291 64.8876 397.721 60.7303L401.268 61.4045C399.666 66.6854 394.288 70.2247 387.709 70.2247C380.443 70.2247 375.294 64.8876 375.294 57.809C375.294 48.2584 381.702 41.0112 390.913 41.0112C397.95 41.0112 403.213 45.618 403.213 52.1348C403.213 53.3146 402.984 54.8315 402.698 55.9551ZM390.398 44.2697C385.306 44.2697 381.302 47.5843 379.7 52.6966H399.609C399.838 47.809 396.062 44.2697 390.398 44.2697Z" fill="white" fill-opacity="0.2"/>
<path d="M419.152 70.2247C411.142 70.2247 407.252 64.8876 407.252 58.0899C407.252 48.9888 413.431 41.0112 423.271 41.0112C428.134 41.0112 431.567 43.5393 432.997 46.4607L435.629 30H439.233L432.825 69.7753H429.221L429.965 65.2247C428.248 67.9775 423.729 70.2247 419.152 70.2247ZM419.781 66.9663C426.933 66.9663 432.139 61.4045 432.139 53.5955C432.139 47.9775 428.878 44.2697 422.871 44.2697C416.291 44.2697 411.085 49.8315 411.085 57.6404C411.085 63.2584 414.346 66.9663 419.781 66.9663Z" fill="white" fill-opacity="0.2"/>
<path d="M447.164 30H451.627L450.768 35.3933H446.306L447.164 30ZM441.157 69.7753L445.734 41.4607H449.338L444.761 69.7753H441.157Z" fill="white" fill-opacity="0.2"/>
<path d="M467.759 41.0112C474.853 41.0112 479.545 45.6742 478.515 51.9663L475.654 69.7753H472.05L472.908 64.5506C470.677 68.0337 466.558 70.2247 461.924 70.2247C456.66 70.2247 452.77 67.0225 452.77 62.6966C452.77 56.7416 457.404 53.6517 468.16 52.6404L474.911 51.9663L475.025 51.236C475.712 46.9663 472.107 44.2697 467.359 44.2697C462.839 44.2697 459.349 46.7416 458.605 50.8989L455.173 50.2247C456.546 44.6629 461.638 41.0112 467.759 41.0112ZM462.725 66.9663C468.903 66.9663 472.794 63.4831 474.052 57.3595L474.453 55L467.931 55.618C460.036 56.4045 456.546 58.427 456.546 62.3034C456.546 65.2247 458.892 66.9663 462.725 66.9663Z" fill="white" fill-opacity="0.2"/>
<path d="M484.81 64.7753H489.33L488.529 69.7753H484.009L484.81 64.7753Z" fill="white" fill-opacity="0.2"/>
<path d="M508.229 70.2247C500.677 70.2247 495.585 64.7753 495.585 57.4157C495.585 47.5843 501.993 41.0112 511.547 41.0112C517.84 41.0112 522.932 45.3371 523.104 50.7303L519.099 51.4607C519.099 47.6966 515.552 44.2697 511.032 44.2697C504.052 44.2697 499.418 49.382 499.418 56.9663C499.418 62.5843 503.194 66.9663 508.686 66.9663C513.206 66.9663 516.467 64.7191 517.611 60.8427L521.387 61.5169C519.671 66.9663 514.808 70.2247 508.229 70.2247Z" fill="white" fill-opacity="0.2"/>
<path d="M539.347 70.2247C531.967 70.2247 526.646 65 526.646 57.809C526.646 48.0899 533.511 41.0112 542.78 41.0112C550.16 41.0112 555.48 46.236 555.48 53.427C555.48 63.1461 548.558 70.2247 539.347 70.2247ZM539.805 66.9663C546.784 66.9663 551.705 61.4045 551.705 53.8202C551.705 48.3146 547.814 44.2697 542.322 44.2697C535.228 44.2697 530.422 49.8315 530.422 57.4157C530.422 62.9213 534.312 66.9663 539.805 66.9663Z" fill="white" fill-opacity="0.2"/>
<path d="M559.49 69.7753L564.067 41.4607H567.671L566.698 47.3595C568.643 43.6517 572.019 41.0112 576.596 41.0112C581.401 41.0112 585.006 43.2584 585.235 47.3034C587.351 43.7079 591.185 41.0112 595.475 41.0112C601.597 41.0112 604.801 44.7191 603.828 50.8989L600.796 69.7753H597.192L600.167 51.3483C600.853 47.1348 598.851 44.2697 594.388 44.2697C589.01 44.2697 585.292 49.1011 584.205 55.6742L581.916 69.7753H578.312L581.287 51.3483C581.974 47.1348 580.028 44.2697 575.566 44.2697C570.188 44.2697 566.469 49.1011 565.382 55.6742L563.094 69.7753H559.49Z" fill="white" fill-opacity="0.2"/>
<path d="M4.2336 117.775L0 89.4607H3.77592L6.92252 112.831L18.0214 89.4607H21.6257L25.1156 112.831L35.814 89.4607H39.6471L26.2598 117.775H22.4267L18.9368 94.6292L8.00952 117.775H4.2336Z" fill="white" fill-opacity="0.3"/>
<path d="M47.1976 117.775L42.964 89.4607H46.7399L49.8865 112.831L60.9854 89.4607H64.5897L68.0796 112.831L78.778 89.4607H82.6112L69.2238 117.775H65.3907L61.9008 94.6292L50.9735 117.775H47.1976Z" fill="white" fill-opacity="0.3"/>
<path d="M90.1617 117.775L85.928 89.4607H89.704L92.8506 112.831L103.949 89.4607H107.554L111.044 112.831L121.742 89.4607H125.575L112.188 117.775H108.355L104.865 94.6292L93.9376 117.775H90.1617Z" fill="white" fill-opacity="0.3"/>
<path d="M124.784 112.775H129.304L128.503 117.775H123.983L124.784 112.775Z" fill="white" fill-opacity="0.3"/>
<path d="M134.659 117.775L135.117 115.079L157.429 92.7191H139.694L140.209 89.4607H162.921L162.464 92.1573L140.323 114.517H158.859L158.344 117.775H134.659Z" fill="white" fill-opacity="0.3"/>
<path d="M191.901 103.955H168.273C168.216 104.517 168.216 105.079 168.216 105.64C168.216 111.146 172.106 114.966 177.369 114.966C182.289 114.966 185.493 112.888 186.924 108.73L190.471 109.404C188.869 114.685 183.491 118.225 176.912 118.225C169.646 118.225 164.497 112.888 164.497 105.809C164.497 96.2584 170.905 89.0112 180.115 89.0112C187.152 89.0112 192.416 93.618 192.416 100.135C192.416 101.315 192.187 102.831 191.901 103.955ZM179.601 92.2697C174.509 92.2697 170.504 95.5843 168.902 100.697H188.812C189.04 95.809 185.264 92.2697 179.601 92.2697Z" fill="white" fill-opacity="0.3"/>
<path d="M194.452 128L200.688 89.4607H204.292L203.549 94.0112C205.494 91.2584 210.014 89.0112 214.362 89.0112C222.371 89.0112 226.261 94.3483 226.261 101.146C226.261 110.191 220.712 118.225 210.872 118.225C206.009 118.225 202.176 115.921 200.574 112.213L198.056 128H194.452ZM211.215 114.966C217.851 114.966 222.485 109.404 222.485 101.596C222.485 95.9775 219.224 92.2697 213.732 92.2697C206.638 92.2697 201.432 97.8315 201.432 105.64C201.432 111.258 205.265 114.966 211.215 114.966Z" fill="white" fill-opacity="0.3"/>
<path d="M230.248 117.775L236.655 78H240.26L233.852 117.775H230.248Z" fill="white" fill-opacity="0.3"/>
<path d="M248.211 78H252.674L251.815 83.3933H247.353L248.211 78ZM242.204 117.775L246.781 89.4607H250.385L245.808 117.775H242.204Z" fill="white" fill-opacity="0.3"/>
<path d="M254.16 117.775L258.737 89.4607H262.341L261.369 95.3595C264.115 91.6517 268.12 89.0112 272.697 89.0112C278.589 89.0112 282.251 92.9438 281.278 98.8989L278.246 117.775H274.642L277.617 99.3483C278.303 95.2472 276.129 92.2697 271.667 92.2697C265.831 92.2697 261.083 97.3258 259.767 105.36L257.764 117.775H254.16Z" fill="white" fill-opacity="0.3"/>
<path d="M292.628 78H297.09L296.232 83.3933H291.77L292.628 78ZM286.621 117.775L291.198 89.4607H294.802L290.225 117.775H286.621Z" fill="white" fill-opacity="0.3"/>
<path d="M323.978 89.4607L312.193 103.281L319.974 117.775H315.855L309.676 106.258L299.893 117.775H295.545L308.017 103.112L300.694 89.4607H304.813L310.534 100.135L319.63 89.4607H323.978Z" fill="white" fill-opacity="0.3"/>
<path d="M325.283 117.775L329.86 89.4607H333.464L332.491 95.3595C334.436 91.6517 337.812 89.0112 342.389 89.0112C347.194 89.0112 350.799 91.2584 351.028 95.3034C353.144 91.7079 356.978 89.0112 361.268 89.0112C367.39 89.0112 370.594 92.7191 369.621 98.8989L366.589 117.775H362.985L365.96 99.3483C366.646 95.1348 364.644 92.2697 360.181 92.2697C354.804 92.2697 351.085 97.1011 349.998 103.674L347.709 117.775H344.105L347.08 99.3483C347.767 95.1348 345.821 92.2697 341.359 92.2697C335.981 92.2697 332.262 97.1011 331.175 103.674L328.887 117.775H325.283Z" fill="white" fill-opacity="0.3"/>
<path d="M402.698 103.955H379.07C379.013 104.517 379.013 105.079 379.013 105.64C379.013 111.146 382.903 114.966 388.167 114.966C393.087 114.966 396.291 112.888 397.721 108.73L401.268 109.404C399.666 114.685 394.288 118.225 387.709 118.225C380.443 118.225 375.294 112.888 375.294 105.809C375.294 96.2584 381.702 89.0112 390.913 89.0112C397.95 89.0112 403.213 93.618 403.213 100.135C403.213 101.315 402.984 102.831 402.698 103.955ZM390.398 92.2697C385.306 92.2697 381.302 95.5843 379.7 100.697H399.609C399.838 95.809 396.062 92.2697 390.398 92.2697Z" fill="white" fill-opacity="0.3"/>
<path d="M419.152 118.225C411.142 118.225 407.252 112.888 407.252 106.09C407.252 96.9888 413.431 89.0112 423.271 89.0112C428.134 89.0112 431.567 91.5393 432.997 94.4607L435.629 78H439.233L432.825 117.775H429.221L429.965 113.225C428.248 115.978 423.729 118.225 419.152 118.225ZM419.781 114.966C426.933 114.966 432.139 109.404 432.139 101.596C432.139 95.9775 428.878 92.2697 422.871 92.2697C416.291 92.2697 411.085 97.8315 411.085 105.64C411.085 111.258 414.346 114.966 419.781 114.966Z" fill="white" fill-opacity="0.3"/>
<path d="M447.164 78H451.627L450.768 83.3933H446.306L447.164 78ZM441.157 117.775L445.734 89.4607H449.338L444.761 117.775H441.157Z" fill="white" fill-opacity="0.3"/>
<path d="M467.759 89.0112C474.853 89.0112 479.545 93.6742 478.515 99.9663L475.654 117.775H472.05L472.908 112.551C470.677 116.034 466.558 118.225 461.924 118.225C456.66 118.225 452.77 115.022 452.77 110.697C452.77 104.742 457.404 101.652 468.16 100.64L474.911 99.9663L475.025 99.236C475.712 94.9663 472.107 92.2697 467.359 92.2697C462.839 92.2697 459.349 94.7416 458.605 98.8989L455.173 98.2247C456.546 92.6629 461.638 89.0112 467.759 89.0112ZM462.725 114.966C468.903 114.966 472.794 111.483 474.052 105.36L474.453 103L467.931 103.618C460.036 104.404 456.546 106.427 456.546 110.303C456.546 113.225 458.892 114.966 462.725 114.966Z" fill="white" fill-opacity="0.3"/>
<path d="M484.81 112.775H489.33L488.529 117.775H484.009L484.81 112.775Z" fill="white" fill-opacity="0.3"/>
<path d="M508.229 118.225C500.677 118.225 495.585 112.775 495.585 105.416C495.585 95.5843 501.993 89.0112 511.547 89.0112C517.84 89.0112 522.932 93.3371 523.104 98.7303L519.099 99.4607C519.099 95.6966 515.552 92.2697 511.032 92.2697C504.052 92.2697 499.418 97.382 499.418 104.966C499.418 110.584 503.194 114.966 508.686 114.966C513.206 114.966 516.467 112.719 517.611 108.843L521.387 109.517C519.671 114.966 514.808 118.225 508.229 118.225Z" fill="white" fill-opacity="0.3"/>
<path d="M539.347 118.225C531.967 118.225 526.646 113 526.646 105.809C526.646 96.0899 533.511 89.0112 542.78 89.0112C550.16 89.0112 555.48 94.236 555.48 101.427C555.48 111.146 548.558 118.225 539.347 118.225ZM539.805 114.966C546.784 114.966 551.705 109.404 551.705 101.82C551.705 96.3146 547.814 92.2697 542.322 92.2697C535.228 92.2697 530.422 97.8315 530.422 105.416C530.422 110.921 534.312 114.966 539.805 114.966Z" fill="white" fill-opacity="0.3"/>
<path d="M559.49 117.775L564.067 89.4607H567.671L566.698 95.3595C568.643 91.6517 572.019 89.0112 576.596 89.0112C581.401 89.0112 585.006 91.2584 585.235 95.3034C587.351 91.7079 591.185 89.0112 595.475 89.0112C601.597 89.0112 604.801 92.7191 603.828 98.8989L600.796 117.775H597.192L600.167 99.3483C600.853 95.1348 598.851 92.2697 594.388 92.2697C589.01 92.2697 585.292 97.1011 584.205 103.674L581.916 117.775H578.312L581.287 99.3483C581.974 95.1348 580.028 92.2697 575.566 92.2697C570.188 92.2697 566.469 97.1011 565.382 103.674L563.094 117.775H559.49Z" fill="white" fill-opacity="0.3"/>
<path d="M4.2336 165.775L0 137.461H3.77592L6.92252 160.831L18.0214 137.461H21.6257L25.1156 160.831L35.814 137.461H39.6471L26.2598 165.775H22.4267L18.9368 142.629L8.00952 165.775H4.2336Z" fill="white" fill-opacity="0.4"/>
<path d="M47.1976 165.775L42.964 137.461H46.7399L49.8865 160.831L60.9854 137.461H64.5897L68.0796 160.831L78.778 137.461H82.6112L69.2238 165.775H65.3907L61.9008 142.629L50.9735 165.775H47.1976Z" fill="white" fill-opacity="0.4"/>
<path d="M90.1617 165.775L85.928 137.461H89.704L92.8506 160.831L103.949 137.461H107.554L111.044 160.831L121.742 137.461H125.575L112.188 165.775H108.355L104.865 142.629L93.9376 165.775H90.1617Z" fill="white" fill-opacity="0.4"/>
<path d="M124.784 160.775H129.304L128.503 165.775H123.983L124.784 160.775Z" fill="white" fill-opacity="0.4"/>
<path d="M134.659 165.775L135.117 163.079L157.429 140.719H139.694L140.209 137.461H162.921L162.464 140.157L140.323 162.517H158.859L158.344 165.775H134.659Z" fill="white" fill-opacity="0.4"/>
<path d="M191.901 151.955H168.273C168.216 152.517 168.216 153.079 168.216 153.64C168.216 159.146 172.106 162.966 177.369 162.966C182.289 162.966 185.493 160.888 186.924 156.73L190.471 157.404C188.869 162.685 183.491 166.225 176.912 166.225C169.646 166.225 164.497 160.888 164.497 153.809C164.497 144.258 170.905 137.011 180.115 137.011C187.152 137.011 192.416 141.618 192.416 148.135C192.416 149.315 192.187 150.831 191.901 151.955ZM179.601 140.27C174.509 140.27 170.504 143.584 168.902 148.697H188.812C189.04 143.809 185.264 140.27 179.601 140.27Z" fill="white" fill-opacity="0.4"/>
<path d="M194.452 176L200.688 137.461H204.292L203.549 142.011C205.494 139.258 210.014 137.011 214.362 137.011C222.371 137.011 226.261 142.348 226.261 149.146C226.261 158.191 220.712 166.225 210.872 166.225C206.009 166.225 202.176 163.921 200.574 160.213L198.056 176H194.452ZM211.215 162.966C217.851 162.966 222.485 157.404 222.485 149.596C222.485 143.978 219.224 140.27 213.732 140.27C206.638 140.27 201.432 145.831 201.432 153.64C201.432 159.258 205.265 162.966 211.215 162.966Z" fill="white" fill-opacity="0.4"/>
<path d="M230.248 165.775L236.655 126H240.26L233.852 165.775H230.248Z" fill="white" fill-opacity="0.4"/>
<path d="M248.211 126H252.674L251.815 131.393H247.353L248.211 126ZM242.204 165.775L246.781 137.461H250.385L245.808 165.775H242.204Z" fill="white" fill-opacity="0.4"/>
<path d="M254.16 165.775L258.737 137.461H262.341L261.369 143.36C264.115 139.652 268.12 137.011 272.697 137.011C278.589 137.011 282.251 140.944 281.278 146.899L278.246 165.775H274.642L277.617 147.348C278.303 143.247 276.129 140.27 271.667 140.27C265.831 140.27 261.083 145.326 259.767 153.36L257.764 165.775H254.16Z" fill="white" fill-opacity="0.4"/>
<path d="M292.628 126H297.09L296.232 131.393H291.77L292.628 126ZM286.621 165.775L291.198 137.461H294.802L290.225 165.775H286.621Z" fill="white" fill-opacity="0.4"/>
<path d="M323.978 137.461L312.193 151.281L319.974 165.775H315.855L309.676 154.258L299.893 165.775H295.545L308.017 151.112L300.694 137.461H304.813L310.534 148.135L319.63 137.461H323.978Z" fill="white" fill-opacity="0.4"/>
<path d="M325.283 165.775L329.86 137.461H333.464L332.491 143.36C334.436 139.652 337.812 137.011 342.389 137.011C347.194 137.011 350.799 139.258 351.028 143.303C353.144 139.708 356.978 137.011 361.268 137.011C367.39 137.011 370.594 140.719 369.621 146.899L366.589 165.775H362.985L365.96 147.348C366.646 143.135 364.644 140.27 360.181 140.27C354.804 140.27 351.085 145.101 349.998 151.674L347.709 165.775H344.105L347.08 147.348C347.767 143.135 345.821 140.27 341.359 140.27C335.981 140.27 332.262 145.101 331.175 151.674L328.887 165.775H325.283Z" fill="white" fill-opacity="0.4"/>
<path d="M402.698 151.955H379.07C379.013 152.517 379.013 153.079 379.013 153.64C379.013 159.146 382.903 162.966 388.167 162.966C393.087 162.966 396.291 160.888 397.721 156.73L401.268 157.404C399.666 162.685 394.288 166.225 387.709 166.225C380.443 166.225 375.294 160.888 375.294 153.809C375.294 144.258 381.702 137.011 390.913 137.011C397.95 137.011 403.213 141.618 403.213 148.135C403.213 149.315 402.984 150.831 402.698 151.955ZM390.398 140.27C385.306 140.27 381.302 143.584 379.7 148.697H399.609C399.838 143.809 396.062 140.27 390.398 140.27Z" fill="white" fill-opacity="0.4"/>
<path d="M419.152 166.225C411.142 166.225 407.252 160.888 407.252 154.09C407.252 144.989 413.431 137.011 423.271 137.011C428.134 137.011 431.567 139.539 432.997 142.461L435.629 126H439.233L432.825 165.775H429.221L429.965 161.225C428.248 163.978 423.729 166.225 419.152 166.225ZM419.781 162.966C426.933 162.966 432.139 157.404 432.139 149.596C432.139 143.978 428.878 140.27 422.871 140.27C416.291 140.27 411.085 145.831 411.085 153.64C411.085 159.258 414.346 162.966 419.781 162.966Z" fill="white" fill-opacity="0.4"/>
<path d="M447.164 126H451.627L450.768 131.393H446.306L447.164 126ZM441.157 165.775L445.734 137.461H449.338L444.761 165.775H441.157Z" fill="white" fill-opacity="0.4"/>
<path d="M467.759 137.011C474.853 137.011 479.545 141.674 478.515 147.966L475.654 165.775H472.05L472.908 160.551C470.677 164.034 466.558 166.225 461.924 166.225C456.66 166.225 452.77 163.022 452.77 158.697C452.77 152.742 457.404 149.652 468.16 148.64L474.911 147.966L475.025 147.236C475.712 142.966 472.107 140.27 467.359 140.27C462.839 140.27 459.349 142.742 458.605 146.899L455.173 146.225C456.546 140.663 461.638 137.011 467.759 137.011ZM462.725 162.966C468.903 162.966 472.794 159.483 474.052 153.36L474.453 151L467.931 151.618C460.036 152.404 456.546 154.427 456.546 158.303C456.546 161.225 458.892 162.966 462.725 162.966Z" fill="white" fill-opacity="0.4"/>
<path d="M484.81 160.775H489.33L488.529 165.775H484.009L484.81 160.775Z" fill="white" fill-opacity="0.4"/>
<path d="M508.229 166.225C500.677 166.225 495.585 160.775 495.585 153.416C495.585 143.584 501.993 137.011 511.547 137.011C517.84 137.011 522.932 141.337 523.104 146.73L519.099 147.461C519.099 143.697 515.552 140.27 511.032 140.27C504.052 140.27 499.418 145.382 499.418 152.966C499.418 158.584 503.194 162.966 508.686 162.966C513.206 162.966 516.467 160.719 517.611 156.843L521.387 157.517C519.671 162.966 514.808 166.225 508.229 166.225Z" fill="white" fill-opacity="0.4"/>
<path d="M539.347 166.225C531.967 166.225 526.646 161 526.646 153.809C526.646 144.09 533.511 137.011 542.78 137.011C550.16 137.011 555.48 142.236 555.48 149.427C555.48 159.146 548.558 166.225 539.347 166.225ZM539.805 162.966C546.784 162.966 551.705 157.404 551.705 149.82C551.705 144.315 547.814 140.27 542.322 140.27C535.228 140.27 530.422 145.831 530.422 153.416C530.422 158.921 534.312 162.966 539.805 162.966Z" fill="white" fill-opacity="0.4"/>
<path d="M559.49 165.775L564.067 137.461H567.671L566.698 143.36C568.643 139.652 572.019 137.011 576.596 137.011C581.401 137.011 585.006 139.258 585.235 143.303C587.351 139.708 591.185 137.011 595.475 137.011C601.597 137.011 604.801 140.719 603.828 146.899L600.796 165.775H597.192L600.167 147.348C600.853 143.135 598.851 140.27 594.388 140.27C589.01 140.27 585.292 145.101 584.205 151.674L581.916 165.775H578.312L581.287 147.348C581.974 143.135 580.028 140.27 575.566 140.27C570.188 140.27 566.469 145.101 565.382 151.674L563.094 165.775H559.49Z" fill="white" fill-opacity="0.4"/>
<path d="M4.2336 213.775L0 185.461H3.77592L6.92252 208.831L18.0214 185.461H21.6257L25.1156 208.831L35.814 185.461H39.6471L26.2598 213.775H22.4267L18.9368 190.629L8.00952 213.775H4.2336Z" fill="white" fill-opacity="0.6"/>
<path d="M47.1976 213.775L42.964 185.461H46.7399L49.8865 208.831L60.9854 185.461H64.5897L68.0796 208.831L78.778 185.461H82.6112L69.2238 213.775H65.3907L61.9008 190.629L50.9735 213.775H47.1976Z" fill="white" fill-opacity="0.6"/>
<path d="M90.1617 213.775L85.928 185.461H89.704L92.8506 208.831L103.949 185.461H107.554L111.044 208.831L121.742 185.461H125.575L112.188 213.775H108.355L104.865 190.629L93.9376 213.775H90.1617Z" fill="white" fill-opacity="0.6"/>
<path d="M124.784 208.775H129.304L128.503 213.775H123.983L124.784 208.775Z" fill="white" fill-opacity="0.6"/>
<path d="M134.659 213.775L135.117 211.079L157.429 188.719H139.694L140.209 185.461H162.921L162.464 188.157L140.323 210.517H158.859L158.344 213.775H134.659Z" fill="white" fill-opacity="0.6"/>
<path d="M191.901 199.955H168.273C168.216 200.517 168.216 201.079 168.216 201.64C168.216 207.146 172.106 210.966 177.369 210.966C182.289 210.966 185.493 208.888 186.924 204.73L190.471 205.404C188.869 210.685 183.491 214.225 176.912 214.225C169.646 214.225 164.497 208.888 164.497 201.809C164.497 192.258 170.905 185.011 180.115 185.011C187.152 185.011 192.416 189.618 192.416 196.135C192.416 197.315 192.187 198.831 191.901 199.955ZM179.601 188.27C174.509 188.27 170.504 191.584 168.902 196.697H188.812C189.04 191.809 185.264 188.27 179.601 188.27Z" fill="white" fill-opacity="0.6"/>
<path d="M194.452 224L200.688 185.461H204.292L203.549 190.011C205.494 187.258 210.014 185.011 214.362 185.011C222.371 185.011 226.261 190.348 226.261 197.146C226.261 206.191 220.712 214.225 210.872 214.225C206.009 214.225 202.176 211.921 200.574 208.213L198.056 224H194.452ZM211.215 210.966C217.851 210.966 222.485 205.404 222.485 197.596C222.485 191.978 219.224 188.27 213.732 188.27C206.638 188.27 201.432 193.831 201.432 201.64C201.432 207.258 205.265 210.966 211.215 210.966Z" fill="white" fill-opacity="0.6"/>
<path d="M230.248 213.775L236.655 174H240.26L233.852 213.775H230.248Z" fill="white" fill-opacity="0.6"/>
<path d="M248.211 174H252.674L251.815 179.393H247.353L248.211 174ZM242.204 213.775L246.781 185.461H250.385L245.808 213.775H242.204Z" fill="white" fill-opacity="0.6"/>
<path d="M254.16 213.775L258.737 185.461H262.341L261.369 191.36C264.115 187.652 268.12 185.011 272.697 185.011C278.589 185.011 282.251 188.944 281.278 194.899L278.246 213.775H274.642L277.617 195.348C278.303 191.247 276.129 188.27 271.667 188.27C265.831 188.27 261.083 193.326 259.767 201.36L257.764 213.775H254.16Z" fill="white" fill-opacity="0.6"/>
<path d="M292.628 174H297.09L296.232 179.393H291.77L292.628 174ZM286.621 213.775L291.198 185.461H294.802L290.225 213.775H286.621Z" fill="white" fill-opacity="0.6"/>
<path d="M323.978 185.461L312.193 199.281L319.974 213.775H315.855L309.676 202.258L299.893 213.775H295.545L308.017 199.112L300.694 185.461H304.813L310.534 196.135L319.63 185.461H323.978Z" fill="white" fill-opacity="0.6"/>
<path d="M325.283 213.775L329.86 185.461H333.464L332.491 191.36C334.436 187.652 337.812 185.011 342.389 185.011C347.194 185.011 350.799 187.258 351.028 191.303C353.144 187.708 356.978 185.011 361.268 185.011C367.39 185.011 370.594 188.719 369.621 194.899L366.589 213.775H362.985L365.96 195.348C366.646 191.135 364.644 188.27 360.181 188.27C354.804 188.27 351.085 193.101 349.998 199.674L347.709 213.775H344.105L347.08 195.348C347.767 191.135 345.821 188.27 341.359 188.27C335.981 188.27 332.262 193.101 331.175 199.674L328.887 213.775H325.283Z" fill="white" fill-opacity="0.6"/>
<path d="M402.698 199.955H379.07C379.013 200.517 379.013 201.079 379.013 201.64C379.013 207.146 382.903 210.966 388.167 210.966C393.087 210.966 396.291 208.888 397.721 204.73L401.268 205.404C399.666 210.685 394.288 214.225 387.709 214.225C380.443 214.225 375.294 208.888 375.294 201.809C375.294 192.258 381.702 185.011 390.913 185.011C397.95 185.011 403.213 189.618 403.213 196.135C403.213 197.315 402.984 198.831 402.698 199.955ZM390.398 188.27C385.306 188.27 381.302 191.584 379.7 196.697H399.609C399.838 191.809 396.062 188.27 390.398 188.27Z" fill="white" fill-opacity="0.6"/>
<path d="M419.152 214.225C411.142 214.225 407.252 208.888 407.252 202.09C407.252 192.989 413.431 185.011 423.271 185.011C428.134 185.011 431.567 187.539 432.997 190.461L435.629 174H439.233L432.825 213.775H429.221L429.965 209.225C428.248 211.978 423.729 214.225 419.152 214.225ZM419.781 210.966C426.933 210.966 432.139 205.404 432.139 197.596C432.139 191.978 428.878 188.27 422.871 188.27C416.291 188.27 411.085 193.831 411.085 201.64C411.085 207.258 414.346 210.966 419.781 210.966Z" fill="white" fill-opacity="0.6"/>
<path d="M447.164 174H451.627L450.768 179.393H446.306L447.164 174ZM441.157 213.775L445.734 185.461H449.338L444.761 213.775H441.157Z" fill="white" fill-opacity="0.6"/>
<path d="M467.759 185.011C474.853 185.011 479.545 189.674 478.515 195.966L475.654 213.775H472.05L472.908 208.551C470.677 212.034 466.558 214.225 461.924 214.225C456.66 214.225 452.77 211.022 452.77 206.697C452.77 200.742 457.404 197.652 468.16 196.64L474.911 195.966L475.025 195.236C475.712 190.966 472.107 188.27 467.359 188.27C462.839 188.27 459.349 190.742 458.605 194.899L455.173 194.225C456.546 188.663 461.638 185.011 467.759 185.011ZM462.725 210.966C468.903 210.966 472.794 207.483 474.052 201.36L474.453 199L467.931 199.618C460.036 200.404 456.546 202.427 456.546 206.303C456.546 209.225 458.892 210.966 462.725 210.966Z" fill="white" fill-opacity="0.6"/>
<path d="M484.81 208.775H489.33L488.529 213.775H484.009L484.81 208.775Z" fill="white" fill-opacity="0.6"/>
<path d="M508.229 214.225C500.677 214.225 495.585 208.775 495.585 201.416C495.585 191.584 501.993 185.011 511.547 185.011C517.84 185.011 522.932 189.337 523.104 194.73L519.099 195.461C519.099 191.697 515.552 188.27 511.032 188.27C504.052 188.27 499.418 193.382 499.418 200.966C499.418 206.584 503.194 210.966 508.686 210.966C513.206 210.966 516.467 208.719 517.611 204.843L521.387 205.517C519.671 210.966 514.808 214.225 508.229 214.225Z" fill="white" fill-opacity="0.6"/>
<path d="M539.347 214.225C531.967 214.225 526.646 209 526.646 201.809C526.646 192.09 533.511 185.011 542.78 185.011C550.16 185.011 555.48 190.236 555.48 197.427C555.48 207.146 548.558 214.225 539.347 214.225ZM539.805 210.966C546.784 210.966 551.705 205.404 551.705 197.82C551.705 192.315 547.814 188.27 542.322 188.27C535.228 188.27 530.422 193.831 530.422 201.416C530.422 206.921 534.312 210.966 539.805 210.966Z" fill="white" fill-opacity="0.6"/>
<path d="M559.49 213.775L564.067 185.461H567.671L566.698 191.36C568.643 187.652 572.019 185.011 576.596 185.011C581.401 185.011 585.006 187.258 585.235 191.303C587.351 187.708 591.185 185.011 595.475 185.011C601.597 185.011 604.801 188.719 603.828 194.899L600.796 213.775H597.192L600.167 195.348C600.853 191.135 598.851 188.27 594.388 188.27C589.01 188.27 585.292 193.101 584.205 199.674L581.916 213.775H578.312L581.287 195.348C581.974 191.135 580.028 188.27 575.566 188.27C570.188 188.27 566.469 193.101 565.382 199.674L563.094 213.775H559.49Z" fill="white" fill-opacity="0.6"/>
<path d="M4.2336 261.775L0 233.461H3.77592L6.92252 256.831L18.0214 233.461H21.6257L25.1156 256.831L35.814 233.461H39.6471L26.2598 261.775H22.4267L18.9368 238.629L8.00952 261.775H4.2336Z" fill="white" fill-opacity="0.6"/>
<path d="M47.1976 261.775L42.964 233.461H46.7399L49.8865 256.831L60.9854 233.461H64.5897L68.0796 256.831L78.778 233.461H82.6112L69.2238 261.775H65.3907L61.9008 238.629L50.9735 261.775H47.1976Z" fill="white" fill-opacity="0.6"/>
<path d="M90.1617 261.775L85.928 233.461H89.704L92.8506 256.831L103.949 233.461H107.554L111.044 256.831L121.742 233.461H125.575L112.188 261.775H108.355L104.865 238.629L93.9376 261.775H90.1617Z" fill="white" fill-opacity="0.6"/>
<path d="M124.784 256.775H129.304L128.503 261.775H123.983L124.784 256.775Z" fill="white" fill-opacity="0.6"/>
<path d="M134.659 261.775L135.117 259.079L157.429 236.719H139.694L140.209 233.461H162.921L162.464 236.157L140.323 258.517H158.859L158.344 261.775H134.659Z" fill="white" fill-opacity="0.6"/>
<path d="M191.901 247.955H168.273C168.216 248.517 168.216 249.079 168.216 249.64C168.216 255.146 172.106 258.966 177.369 258.966C182.289 258.966 185.493 256.888 186.924 252.73L190.471 253.404C188.869 258.685 183.491 262.225 176.912 262.225C169.646 262.225 164.497 256.888 164.497 249.809C164.497 240.258 170.905 233.011 180.115 233.011C187.152 233.011 192.416 237.618 192.416 244.135C192.416 245.315 192.187 246.831 191.901 247.955ZM179.601 236.27C174.509 236.27 170.504 239.584 168.902 244.697H188.812C189.04 239.809 185.264 236.27 179.601 236.27Z" fill="white" fill-opacity="0.6"/>
<path d="M194.452 272L200.688 233.461H204.292L203.549 238.011C205.494 235.258 210.014 233.011 214.362 233.011C222.371 233.011 226.261 238.348 226.261 245.146C226.261 254.191 220.712 262.225 210.872 262.225C206.009 262.225 202.176 259.921 200.574 256.213L198.056 272H194.452ZM211.215 258.966C217.851 258.966 222.485 253.404 222.485 245.596C222.485 239.978 219.224 236.27 213.732 236.27C206.638 236.27 201.432 241.831 201.432 249.64C201.432 255.258 205.265 258.966 211.215 258.966Z" fill="white" fill-opacity="0.6"/>
<path d="M230.248 261.775L236.655 222H240.26L233.852 261.775H230.248Z" fill="white" fill-opacity="0.6"/>
<path d="M248.211 222H252.674L251.815 227.393H247.353L248.211 222ZM242.204 261.775L246.781 233.461H250.385L245.808 261.775H242.204Z" fill="white" fill-opacity="0.6"/>
<path d="M254.16 261.775L258.737 233.461H262.341L261.369 239.36C264.115 235.652 268.12 233.011 272.697 233.011C278.589 233.011 282.251 236.944 281.278 242.899L278.246 261.775H274.642L277.617 243.348C278.303 239.247 276.129 236.27 271.667 236.27C265.831 236.27 261.083 241.326 259.767 249.36L257.764 261.775H254.16Z" fill="white" fill-opacity="0.6"/>
<path d="M292.628 222H297.09L296.232 227.393H291.77L292.628 222ZM286.621 261.775L291.198 233.461H294.802L290.225 261.775H286.621Z" fill="white" fill-opacity="0.6"/>
<path d="M323.978 233.461L312.193 247.281L319.974 261.775H315.855L309.676 250.258L299.893 261.775H295.545L308.017 247.112L300.694 233.461H304.813L310.534 244.135L319.63 233.461H323.978Z" fill="white" fill-opacity="0.6"/>
<path d="M325.283 261.775L329.86 233.461H333.464L332.491 239.36C334.436 235.652 337.812 233.011 342.389 233.011C347.194 233.011 350.799 235.258 351.028 239.303C353.144 235.708 356.978 233.011 361.268 233.011C367.39 233.011 370.594 236.719 369.621 242.899L366.589 261.775H362.985L365.96 243.348C366.646 239.135 364.644 236.27 360.181 236.27C354.804 236.27 351.085 241.101 349.998 247.674L347.709 261.775H344.105L347.08 243.348C347.767 239.135 345.821 236.27 341.359 236.27C335.981 236.27 332.262 241.101 331.175 247.674L328.887 261.775H325.283Z" fill="white" fill-opacity="0.6"/>
<path d="M402.698 247.955H379.07C379.013 248.517 379.013 249.079 379.013 249.64C379.013 255.146 382.903 258.966 388.167 258.966C393.087 258.966 396.291 256.888 397.721 252.73L401.268 253.404C399.666 258.685 394.288 262.225 387.709 262.225C380.443 262.225 375.294 256.888 375.294 249.809C375.294 240.258 381.702 233.011 390.913 233.011C397.95 233.011 403.213 237.618 403.213 244.135C403.213 245.315 402.984 246.831 402.698 247.955ZM390.398 236.27C385.306 236.27 381.302 239.584 379.7 244.697H399.609C399.838 239.809 396.062 236.27 390.398 236.27Z" fill="white" fill-opacity="0.6"/>
<path d="M419.152 262.225C411.142 262.225 407.252 256.888 407.252 250.09C407.252 240.989 413.431 233.011 423.271 233.011C428.134 233.011 431.567 235.539 432.997 238.461L435.629 222H439.233L432.825 261.775H429.221L429.965 257.225C428.248 259.978 423.729 262.225 419.152 262.225ZM419.781 258.966C426.933 258.966 432.139 253.404 432.139 245.596C432.139 239.978 428.878 236.27 422.871 236.27C416.291 236.27 411.085 241.831 411.085 249.64C411.085 255.258 414.346 258.966 419.781 258.966Z" fill="white" fill-opacity="0.6"/>
<path d="M447.164 222H451.627L450.768 227.393H446.306L447.164 222ZM441.157 261.775L445.734 233.461H449.338L444.761 261.775H441.157Z" fill="white" fill-opacity="0.6"/>
<path d="M467.759 233.011C474.853 233.011 479.545 237.674 478.515 243.966L475.654 261.775H472.05L472.908 256.551C470.677 260.034 466.558 262.225 461.924 262.225C456.66 262.225 452.77 259.022 452.77 254.697C452.77 248.742 457.404 245.652 468.16 244.64L474.911 243.966L475.025 243.236C475.712 238.966 472.107 236.27 467.359 236.27C462.839 236.27 459.349 238.742 458.605 242.899L455.173 242.225C456.546 236.663 461.638 233.011 467.759 233.011ZM462.725 258.966C468.903 258.966 472.794 255.483 474.052 249.36L474.453 247L467.931 247.618C460.036 248.404 456.546 250.427 456.546 254.303C456.546 257.225 458.892 258.966 462.725 258.966Z" fill="white" fill-opacity="0.6"/>
<path d="M484.81 256.775H489.33L488.529 261.775H484.009L484.81 256.775Z" fill="white" fill-opacity="0.6"/>
<path d="M508.229 262.225C500.677 262.225 495.585 256.775 495.585 249.416C495.585 239.584 501.993 233.011 511.547 233.011C517.84 233.011 522.932 237.337 523.104 242.73L519.099 243.461C519.099 239.697 515.552 236.27 511.032 236.27C504.052 236.27 499.418 241.382 499.418 248.966C499.418 254.584 503.194 258.966 508.686 258.966C513.206 258.966 516.467 256.719 517.611 252.843L521.387 253.517C519.671 258.966 514.808 262.225 508.229 262.225Z" fill="white" fill-opacity="0.6"/>
<path d="M539.347 262.225C531.967 262.225 526.646 257 526.646 249.809C526.646 240.09 533.511 233.011 542.78 233.011C550.16 233.011 555.48 238.236 555.48 245.427C555.48 255.146 548.558 262.225 539.347 262.225ZM539.805 258.966C546.784 258.966 551.705 253.404 551.705 245.82C551.705 240.315 547.814 236.27 542.322 236.27C535.228 236.27 530.422 241.831 530.422 249.416C530.422 254.921 534.312 258.966 539.805 258.966Z" fill="white" fill-opacity="0.6"/>
<path d="M559.49 261.775L564.067 233.461H567.671L566.698 239.36C568.643 235.652 572.019 233.011 576.596 233.011C581.401 233.011 585.006 235.258 585.235 239.303C587.351 235.708 591.185 233.011 595.475 233.011C601.597 233.011 604.801 236.719 603.828 242.899L600.796 261.775H597.192L600.167 243.348C600.853 239.135 598.851 236.27 594.388 236.27C589.01 236.27 585.292 241.101 584.205 247.674L581.916 261.775H578.312L581.287 243.348C581.974 239.135 580.028 236.27 575.566 236.27C570.188 236.27 566.469 241.101 565.382 247.674L563.094 261.775H559.49Z" fill="white" fill-opacity="0.6"/>
<path d="M4.2336 309.775L0 281.461H3.77592L6.92252 304.831L18.0214 281.461H21.6257L25.1156 304.831L35.814 281.461H39.6471L26.2598 309.775H22.4267L18.9368 286.629L8.00952 309.775H4.2336Z" fill="white" fill-opacity="0.6"/>
<path d="M47.1976 309.775L42.964 281.461H46.7399L49.8865 304.831L60.9854 281.461H64.5897L68.0796 304.831L78.778 281.461H82.6112L69.2238 309.775H65.3907L61.9008 286.629L50.9735 309.775H47.1976Z" fill="white" fill-opacity="0.6"/>
<path d="M90.1617 309.775L85.928 281.461H89.704L92.8506 304.831L103.949 281.461H107.554L111.044 304.831L121.742 281.461H125.575L112.188 309.775H108.355L104.865 286.629L93.9376 309.775H90.1617Z" fill="white" fill-opacity="0.6"/>
<path d="M124.784 304.775H129.304L128.503 309.775H123.983L124.784 304.775Z" fill="white" fill-opacity="0.6"/>
<path d="M134.659 309.775L135.117 307.079L157.429 284.719H139.694L140.209 281.461H162.921L162.464 284.157L140.323 306.517H158.859L158.344 309.775H134.659Z" fill="white" fill-opacity="0.6"/>
<path d="M191.901 295.955H168.273C168.216 296.517 168.216 297.079 168.216 297.64C168.216 303.146 172.106 306.966 177.369 306.966C182.289 306.966 185.493 304.888 186.924 300.73L190.471 301.404C188.869 306.685 183.491 310.225 176.912 310.225C169.646 310.225 164.497 304.888 164.497 297.809C164.497 288.258 170.905 281.011 180.115 281.011C187.152 281.011 192.416 285.618 192.416 292.135C192.416 293.315 192.187 294.831 191.901 295.955ZM179.601 284.27C174.509 284.27 170.504 287.584 168.902 292.697H188.812C189.04 287.809 185.264 284.27 179.601 284.27Z" fill="white" fill-opacity="0.6"/>
<path d="M194.452 320L200.688 281.461H204.292L203.549 286.011C205.494 283.258 210.014 281.011 214.362 281.011C222.371 281.011 226.261 286.348 226.261 293.146C226.261 302.191 220.712 310.225 210.872 310.225C206.009 310.225 202.176 307.921 200.574 304.213L198.056 320H194.452ZM211.215 306.966C217.851 306.966 222.485 301.404 222.485 293.596C222.485 287.978 219.224 284.27 213.732 284.27C206.638 284.27 201.432 289.831 201.432 297.64C201.432 303.258 205.265 306.966 211.215 306.966Z" fill="white" fill-opacity="0.6"/>
<path d="M230.248 309.775L236.655 270H240.26L233.852 309.775H230.248Z" fill="white" fill-opacity="0.6"/>
<path d="M248.211 270H252.674L251.815 275.393H247.353L248.211 270ZM242.204 309.775L246.781 281.461H250.385L245.808 309.775H242.204Z" fill="white" fill-opacity="0.6"/>
<path d="M254.16 309.775L258.737 281.461H262.341L261.369 287.36C264.115 283.652 268.12 281.011 272.697 281.011C278.589 281.011 282.251 284.944 281.278 290.899L278.246 309.775H274.642L277.617 291.348C278.303 287.247 276.129 284.27 271.667 284.27C265.831 284.27 261.083 289.326 259.767 297.36L257.764 309.775H254.16Z" fill="white" fill-opacity="0.6"/>
<path d="M292.628 270H297.09L296.232 275.393H291.77L292.628 270ZM286.621 309.775L291.198 281.461H294.802L290.225 309.775H286.621Z" fill="white" fill-opacity="0.6"/>
<path d="M323.978 281.461L312.193 295.281L319.974 309.775H315.855L309.676 298.258L299.893 309.775H295.545L308.017 295.112L300.694 281.461H304.813L310.534 292.135L319.63 281.461H323.978Z" fill="white" fill-opacity="0.6"/>
<path d="M325.283 309.775L329.86 281.461H333.464L332.491 287.36C334.436 283.652 337.812 281.011 342.389 281.011C347.194 281.011 350.799 283.258 351.028 287.303C353.144 283.708 356.978 281.011 361.268 281.011C367.39 281.011 370.594 284.719 369.621 290.899L366.589 309.775H362.985L365.96 291.348C366.646 287.135 364.644 284.27 360.181 284.27C354.804 284.27 351.085 289.101 349.998 295.674L347.709 309.775H344.105L347.08 291.348C347.767 287.135 345.821 284.27 341.359 284.27C335.981 284.27 332.262 289.101 331.175 295.674L328.887 309.775H325.283Z" fill="white" fill-opacity="0.6"/>
<path d="M402.698 295.955H379.07C379.013 296.517 379.013 297.079 379.013 297.64C379.013 303.146 382.903 306.966 388.167 306.966C393.087 306.966 396.291 304.888 397.721 300.73L401.268 301.404C399.666 306.685 394.288 310.225 387.709 310.225C380.443 310.225 375.294 304.888 375.294 297.809C375.294 288.258 381.702 281.011 390.913 281.011C397.95 281.011 403.213 285.618 403.213 292.135C403.213 293.315 402.984 294.831 402.698 295.955ZM390.398 284.27C385.306 284.27 381.302 287.584 379.7 292.697H399.609C399.838 287.809 396.062 284.27 390.398 284.27Z" fill="white" fill-opacity="0.6"/>
<path d="M419.152 310.225C411.142 310.225 407.252 304.888 407.252 298.09C407.252 288.989 413.431 281.011 423.271 281.011C428.134 281.011 431.567 283.539 432.997 286.461L435.629 270H439.233L432.825 309.775H429.221L429.965 305.225C428.248 307.978 423.729 310.225 419.152 310.225ZM419.781 306.966C426.933 306.966 432.139 301.404 432.139 293.596C432.139 287.978 428.878 284.27 422.871 284.27C416.291 284.27 411.085 289.831 411.085 297.64C411.085 303.258 414.346 306.966 419.781 306.966Z" fill="white" fill-opacity="0.6"/>
<path d="M447.164 270H451.627L450.768 275.393H446.306L447.164 270ZM441.157 309.775L445.734 281.461H449.338L444.761 309.775H441.157Z" fill="white" fill-opacity="0.6"/>
<path d="M467.759 281.011C474.853 281.011 479.545 285.674 478.515 291.966L475.654 309.775H472.05L472.908 304.551C470.677 308.034 466.558 310.225 461.924 310.225C456.66 310.225 452.77 307.022 452.77 302.697C452.77 296.742 457.404 293.652 468.16 292.64L474.911 291.966L475.025 291.236C475.712 286.966 472.107 284.27 467.359 284.27C462.839 284.27 459.349 286.742 458.605 290.899L455.173 290.225C456.546 284.663 461.638 281.011 467.759 281.011ZM462.725 306.966C468.903 306.966 472.794 303.483 474.052 297.36L474.453 295L467.931 295.618C460.036 296.404 456.546 298.427 456.546 302.303C456.546 305.225 458.892 306.966 462.725 306.966Z" fill="white" fill-opacity="0.6"/>
<path d="M484.81 304.775H489.33L488.529 309.775H484.009L484.81 304.775Z" fill="white" fill-opacity="0.6"/>
<path d="M508.229 310.225C500.677 310.225 495.585 304.775 495.585 297.416C495.585 287.584 501.993 281.011 511.547 281.011C517.84 281.011 522.932 285.337 523.104 290.73L519.099 291.461C519.099 287.697 515.552 284.27 511.032 284.27C504.052 284.27 499.418 289.382 499.418 296.966C499.418 302.584 503.194 306.966 508.686 306.966C513.206 306.966 516.467 304.719 517.611 300.843L521.387 301.517C519.671 306.966 514.808 310.225 508.229 310.225Z" fill="white" fill-opacity="0.6"/>
<path d="M539.347 310.225C531.967 310.225 526.646 305 526.646 297.809C526.646 288.09 533.511 281.011 542.78 281.011C550.16 281.011 555.48 286.236 555.48 293.427C555.48 303.146 548.558 310.225 539.347 310.225ZM539.805 306.966C546.784 306.966 551.705 301.404 551.705 293.82C551.705 288.315 547.814 284.27 542.322 284.27C535.228 284.27 530.422 289.831 530.422 297.416C530.422 302.921 534.312 306.966 539.805 306.966Z" fill="white" fill-opacity="0.6"/>
<path d="M559.49 309.775L564.067 281.461H567.671L566.698 287.36C568.643 283.652 572.019 281.011 576.596 281.011C581.401 281.011 585.006 283.258 585.235 287.303C587.351 283.708 591.185 281.011 595.475 281.011C601.597 281.011 604.801 284.719 603.828 290.899L600.796 309.775H597.192L600.167 291.348C600.853 287.135 598.851 284.27 594.388 284.27C589.01 284.27 585.292 289.101 584.205 295.674L581.916 309.775H578.312L581.287 291.348C581.974 287.135 580.028 284.27 575.566 284.27C570.188 284.27 566.469 289.101 565.382 295.674L563.094 309.775H559.49Z" fill="white" fill-opacity="0.6"/>
</svg>
