<svg width="18" height="18" viewBox="0 0 18 18" fill="none" xmlns="http://www.w3.org/2000/svg">
<path d="M17.0984 8.10156H8.99844H6.29844C5.75844 8.10156 5.39844 8.46156 5.39844 9.00156C5.39844 9.54156 5.75844 9.90156 6.29844 9.90156H8.99844V17.1016C8.99844 17.6416 9.35844 18.0016 9.89844 18.0016H17.0984C17.6384 18.0016 17.9984 17.6416 17.9984 17.1016V9.00156C17.9984 8.46156 17.6384 8.10156 17.0984 8.10156Z" fill="white"/>
<path d="M8.09816 13.5005C8.09816 13.9505 7.64816 14.4005 7.19816 14.4005H5.39816V16.2005H6.74816C7.01816 16.2005 7.19816 16.3805 7.19816 16.6505V17.5505C7.19816 17.8205 7.01816 18.0005 6.74816 18.0005H2.24816C1.97816 18.0005 1.79816 17.8205 1.79816 17.5505V16.6505C1.79816 16.3805 1.97816 16.2005 2.24816 16.2005H3.59816V14.4005H1.79816C1.34816 14.4005 0.988158 14.0405 0.898158 13.5905L-0.00184207 6.3905C-0.0918421 5.9405 0.268158 5.4905 0.808158 5.4005C1.25816 5.3105 1.70816 5.6705 1.79816 6.2105L2.60816 12.6005H7.19816C7.73816 12.6005 8.09816 12.9605 8.09816 13.5005Z" fill="white"/>
<path d="M8.99766 6.30094H15.2977C15.6577 6.30094 16.0177 6.12094 16.1077 5.76094L17.9077 1.26094C18.0877 0.810938 17.9077 0.270938 17.3677 0.0909375C16.9177 -0.0890625 16.3777 0.0909375 16.1977 0.630938L14.6677 4.50094H8.99766C8.45766 4.50094 8.09766 4.86094 8.09766 5.40094C8.09766 5.94094 8.45766 6.30094 8.99766 6.30094Z" fill="white"/>
</svg>
