<svg width="75" height="53" viewBox="0 0 75 53" fill="none" xmlns="http://www.w3.org/2000/svg">
<path d="M74.228 38.6348H1.82986C1.4039 38.6348 1.05859 38.9801 1.05859 39.406V51.7485C1.05859 52.1745 1.4039 52.5198 1.82986 52.5198H74.228C74.654 52.5198 74.9993 52.1745 74.9993 51.7485V39.406C74.9993 38.9801 74.654 38.6348 74.228 38.6348Z" fill="#131518"/>
<path d="M19.2206 41.5762H21.1003L18.445 46.5388V49.5156H16.7862V46.5388L14.0391 41.5762H15.9941L17.6421 45.0343L19.2206 41.5762Z" fill="white"/>
<path d="M26.5583 48.7966C26.0626 49.4086 25.3107 49.7142 24.3012 49.7142C23.2917 49.7142 22.5398 49.4086 22.0441 48.7966C21.5483 48.1846 21.3008 47.4485 21.3008 46.5875C21.3008 45.7266 21.5483 45.0069 22.0441 44.3863C22.5398 43.7657 23.2917 43.4551 24.3012 43.4551C25.3107 43.4551 26.0626 43.7657 26.5583 44.3863C27.0541 45.0069 27.3016 45.7409 27.3016 46.5875C27.3016 47.4341 27.0541 48.1853 26.5583 48.7966ZM25.33 47.9478C25.5704 47.6285 25.6909 47.1751 25.6909 46.5868C25.6909 45.9985 25.5704 45.5458 25.33 45.2286C25.0897 44.9115 24.7446 44.753 24.2962 44.753C23.8478 44.753 23.5019 44.9115 23.2594 45.2286C23.0169 45.5458 22.8957 45.9985 22.8957 46.5868C22.8957 47.1751 23.0169 47.6285 23.2594 47.9478C23.5019 48.2671 23.8478 48.4264 24.2962 48.4264C24.7446 48.4264 25.0897 48.2671 25.33 47.9478Z" fill="white"/>
<path d="M30.4823 43.6452V47.1845C30.4823 47.5181 30.5218 47.7699 30.6 47.9385C30.7392 48.237 31.0125 48.3855 31.42 48.3855C31.9416 48.3855 32.2989 48.1739 32.4919 47.7498C32.5916 47.5202 32.6419 47.2168 32.6419 46.8394V43.6452H34.1988V49.5162H32.7064V48.6868C32.6921 48.7048 32.6562 48.7586 32.5988 48.8483C32.5414 48.938 32.4733 49.0169 32.3951 49.085C32.1554 49.3003 31.923 49.4481 31.6991 49.527C31.4753 49.6059 31.2127 49.6454 30.9121 49.6454C30.0454 49.6454 29.4621 49.3333 29.1608 48.7084C28.9921 48.364 28.9082 47.8553 28.9082 47.1838V43.6445H30.4809L30.4823 43.6452Z" fill="white"/>
<path d="M39.5039 43.5087C39.524 43.5109 39.5678 43.513 39.6359 43.5166V45.0893C39.5391 45.0785 39.453 45.0714 39.3777 45.0678C39.3023 45.0642 39.2413 45.062 39.1947 45.062C38.577 45.062 38.1623 45.2629 37.9506 45.6654C37.8322 45.8914 37.7727 46.2401 37.7727 46.7108V49.5175H36.2266V43.6465H37.6916V44.6696C37.9284 44.2786 38.135 44.011 38.3108 43.8667C38.5978 43.6264 38.9716 43.5059 39.4315 43.5059C39.4602 43.5059 39.4846 43.5066 39.5039 43.5087Z" fill="white"/>
<path d="M43.4812 41.5762H45.358L48.1669 49.5156H46.3675L45.8438 47.8834H42.9201L42.382 49.5156H40.6465L43.4805 41.5762H43.4812ZM43.3721 46.5152H45.4054L44.4024 43.3913L43.3721 46.5152Z" fill="white"/>
<path d="M49.5953 47.9804C49.8141 47.4595 50.3314 46.9085 51.1464 46.3266C51.8538 45.8201 52.3116 45.4578 52.5196 45.2383C52.8389 44.8975 52.9989 44.5237 52.9989 44.1176C52.9989 43.7875 52.9071 43.5128 52.7241 43.2932C52.5411 43.0744 52.2786 42.9646 51.9378 42.9646C51.4707 42.9646 51.1529 43.139 50.9843 43.4869C50.8874 43.6878 50.83 44.0078 50.8121 44.4455H49.3197C49.3449 43.7811 49.4654 43.2444 49.6814 42.8348C50.091 42.0556 50.8192 41.666 51.8653 41.666C52.6918 41.666 53.3497 41.8949 53.839 42.3526C54.3276 42.8104 54.5723 43.4166 54.5723 44.1707C54.5723 44.7489 54.3994 45.2626 54.0543 45.7111C53.8275 46.0095 53.4552 46.341 52.9372 46.7076L52.3216 47.1438C51.9363 47.4165 51.673 47.6145 51.5317 47.7365C51.3896 47.8584 51.2705 48.0005 51.1737 48.1619H54.583V49.5136H49.2344C49.2487 48.9533 49.3693 48.4417 49.5953 47.9782V47.9804Z" fill="white"/>
<path d="M55.8562 48.1158L59.9141 42.9824H55.9581V41.5762H61.9747V42.9063L57.8636 48.1151H61.9855V49.5156H55.8555V48.1151L55.8562 48.1158Z" fill="white"/>
<path d="M34.9091 17.5933V27.2775C34.9091 27.2869 34.9012 27.2948 34.8919 27.2948H27.332V3.11133C31.9051 6.29685 34.9091 11.6183 34.9091 17.594V17.5933Z" fill="url(#paint0_linear_438_1711)"/>
<path d="M27.3317 3.11023L27.2987 17.562C27.2987 11.8733 22.5333 7.28657 16.8546 7.6288C11.6982 7.93874 7.61086 12.2191 7.61086 17.4537C7.61086 22.6883 11.8948 27.1731 17.2263 27.2944C17.3023 27.2958 17.3784 27.298 17.4544 27.298C17.5305 27.298 17.6072 27.2965 17.6833 27.2944H27.2908C27.2951 27.2944 27.2987 34.1906 27.2987 34.1906C27.2987 34.5866 26.9773 34.9081 26.5812 34.9081H17.5936C7.86556 34.9081 -0.124797 26.9493 0.00147637 17.222C0.124162 7.76655 7.76798 0.124167 17.2234 0.00148145C20.9736 -0.0473058 24.4618 1.11139 27.331 3.11023H27.3317Z" fill="url(#paint1_linear_438_1711)"/>
<path d="M34.9241 28.6504V34.177C34.9241 34.5515 34.6206 34.855 34.2461 34.855H29.3968C29.0222 34.855 28.7188 34.5515 28.7188 34.177V28.6504H34.9233H34.9241Z" stroke="#231F20" stroke-width="0.295592" stroke-miterlimit="10"/>
<path d="M52.3415 26.2822C51.9297 26.6344 52.1787 27.3081 52.7204 27.3081H39.4746C39.5019 27.2672 39.5356 27.2313 39.5736 27.1983L62.4412 7.62891H74.1286C74.1121 7.64828 74.0935 7.66693 74.0741 7.68343L52.3423 26.2822H52.3415Z" fill="url(#paint2_linear_438_1711)"/>
<path d="M65.0047 27.3066V34.3356C65.0047 34.6577 64.7435 34.9189 64.4214 34.9189H39.9524C39.6303 34.9189 39.3691 34.657 39.3691 34.3356V27.6395C39.3691 27.5197 39.4064 27.4028 39.4746 27.3066H65.0047Z" fill="url(#paint3_linear_438_1711)"/>
<path d="M74.2772 7.23961C74.2772 7.38454 74.2241 7.52229 74.1279 7.62847H62.4405L62.4477 7.62201H39.9524C39.6303 7.62201 39.3691 7.36086 39.3691 7.03872V0.00976562H74.2772V7.23889V7.23961Z" fill="url(#paint4_linear_438_1711)"/>
<path d="M74.288 27.3066V34.2187C74.288 34.6046 73.9752 34.9182 73.5885 34.9182H67.3753C66.9893 34.9182 66.6758 34.6054 66.6758 34.2187V27.3066H74.2873H74.288Z" fill="#131518"/>
<path style="mix-blend-mode:multiply" opacity="0.56" d="M65.2945 15.163L57.0781 12.2142L62.4182 7.62891H74.1278L65.2945 15.163Z" fill="url(#paint5_linear_438_1711)"/>
<path style="mix-blend-mode:multiply" opacity="0.56" d="M48.3087 19.7715L56.5251 22.7202L52.226 26.4116L52.1457 26.6017C52.0883 26.9439 52.305 27.1707 52.4642 27.251L52.7986 27.3055H51.1843H39.4746L48.308 19.7715H48.3087Z" fill="url(#paint6_linear_438_1711)"/>
<path style="mix-blend-mode:multiply" opacity="0.52" d="M17.6934 7.56155L18.0177 0.0117188L20.2741 0.23413C22.0476 0.552682 23.9008 1.19266 25.5101 2.00267L27.3317 3.11258L27.2822 17.1978L27.0727 15.8418C26.9177 14.8366 26.6035 13.8608 26.1221 12.9655C24.322 9.61851 21.8302 8.52151 20.1184 7.97122C19.8271 7.87723 19.5286 7.80764 19.2266 7.76029L17.6941 7.56227L17.6934 7.56155Z" fill="url(#paint7_linear_438_1711)"/>
<defs>
<linearGradient id="paint0_linear_438_1711" x1="31.1209" y1="27.2948" x2="31.1209" y2="3.11061" gradientUnits="userSpaceOnUse">
<stop offset="0.11" stop-color="#5A5DAA"/>
<stop offset="0.28" stop-color="#70579D"/>
<stop offset="0.63" stop-color="#A9487E"/>
<stop offset="1" stop-color="#EE3658"/>
</linearGradient>
<linearGradient id="paint1_linear_438_1711" x1="27.3317" y1="17.4537" x2="0.000759137" y2="17.4537" gradientUnits="userSpaceOnUse">
<stop offset="0.11" stop-color="#5A5DAA"/>
<stop offset="0.28" stop-color="#70579D"/>
<stop offset="0.63" stop-color="#A9487E"/>
<stop offset="1" stop-color="#EE3658"/>
</linearGradient>
<linearGradient id="paint2_linear_438_1711" x1="70.3814" y1="3.88233" x2="43.2154" y2="31.049" gradientUnits="userSpaceOnUse">
<stop offset="0.11" stop-color="#5A5DAA"/>
<stop offset="0.28" stop-color="#70579D"/>
<stop offset="0.63" stop-color="#A9487E"/>
<stop offset="1" stop-color="#EE3658"/>
</linearGradient>
<linearGradient id="paint3_linear_438_1711" x1="39.3691" y1="31.1121" x2="65.0047" y2="31.1121" gradientUnits="userSpaceOnUse">
<stop offset="0.11" stop-color="#5A5DAA"/>
<stop offset="0.28" stop-color="#70579D"/>
<stop offset="0.63" stop-color="#A9487E"/>
<stop offset="1" stop-color="#EE3658"/>
</linearGradient>
<linearGradient id="paint4_linear_438_1711" x1="39.3691" y1="3.81948" x2="74.2772" y2="3.81948" gradientUnits="userSpaceOnUse">
<stop offset="0.11" stop-color="#5A5DAA"/>
<stop offset="0.28" stop-color="#70579D"/>
<stop offset="0.63" stop-color="#A9487E"/>
<stop offset="1" stop-color="#EE3658"/>
</linearGradient>
<linearGradient id="paint5_linear_438_1711" x1="65.603" y1="7.62891" x2="65.603" y2="15.163" gradientUnits="userSpaceOnUse">
<stop stop-color="#231F20"/>
<stop offset="0.04" stop-color="#2F2B2C" stop-opacity="0.94"/>
<stop offset="0.63" stop-color="#C7C6C6" stop-opacity="0.25"/>
<stop offset="1" stop-color="white" stop-opacity="0"/>
</linearGradient>
<linearGradient id="paint6_linear_438_1711" x1="48.0002" y1="27.3055" x2="48.0002" y2="19.7722" gradientUnits="userSpaceOnUse">
<stop stop-color="#231F20"/>
<stop offset="0.26" stop-color="#797777" stop-opacity="0.61"/>
<stop offset="0.67" stop-color="#DCDBDB" stop-opacity="0.16"/>
<stop offset="1" stop-color="white" stop-opacity="0"/>
</linearGradient>
<linearGradient id="paint7_linear_438_1711" x1="27.3317" y1="8.60402" x2="17.6934" y2="8.60402" gradientUnits="userSpaceOnUse">
<stop stop-color="#231F20"/>
<stop offset="1" stop-color="white" stop-opacity="0"/>
</linearGradient>
</defs>
</svg>
