<svg width="67" height="67" viewBox="0 0 67 67" fill="none" xmlns="http://www.w3.org/2000/svg">
<g clip-path="url(#clip0_452_1186)">
<mask id="mask0_452_1186" style="mask-type:luminance" maskUnits="userSpaceOnUse" x="0" y="0" width="67" height="67">
<path d="M0 0L0 67H67V0H0Z" fill="white"/>
</mask>
<g mask="url(#mask0_452_1186)">
<path fill-rule="evenodd" clip-rule="evenodd" d="M14.4907 58.5088L14.4906 67H19.0094V58.5088C19.0094 55.1953 21.6955 52.5092 25.0089 52.5092H25.0253H33.5H41.9742H41.9912C45.3044 52.5092 47.9908 55.1953 47.9908 58.5088V67H52.5092V58.5088C52.5092 55.1953 55.1956 52.5092 58.5091 52.5092H58.5252H67V47.9908H58.5252H58.5091C55.1956 47.9908 52.5092 45.3047 52.5092 41.9912V33.5V25.0089C52.5092 21.6954 55.1956 19.0093 58.5091 19.0093L58.5252 19.0093H67V14.4907H58.5252H58.5091C55.1956 14.4907 52.5092 11.8046 52.5092 8.49111V0L47.9908 1.97516e-07V8.49111C47.9908 11.8046 45.3044 14.4907 41.9912 14.4907H41.9748H33.5H25.0252H25.0089C21.6955 14.4907 19.0094 11.8046 19.0094 8.49111V1.46433e-06L14.4906 1.66185e-06V8.49111C14.4906 11.8046 11.8045 14.4907 8.49108 14.4907L8.47476 14.4907H0L2.51418e-08 19.0093H8.47429L8.49108 19.0093C11.8045 19.0093 14.4907 21.6954 14.4907 25.0089L14.4906 33.5L14.4907 41.9912C14.4907 45.3047 11.8045 47.9908 8.49108 47.9908H8.47476H0L2.51418e-08 52.5092H8.47429H8.49108C11.8045 52.5092 14.4907 55.1953 14.4907 58.5088ZM47.9908 33.5V25.0089C47.9908 21.6954 45.3044 19.0093 41.9912 19.0093L41.9742 19.0093H33.5H25.0253L25.0089 19.0093C21.6955 19.0093 19.0094 21.6954 19.0094 25.0089V33.5V41.9912C19.0094 45.3047 21.6955 47.9908 25.0089 47.9908H25.0252H33.5H41.9748H41.9912C45.3044 47.9908 47.9908 45.3047 47.9908 41.9912V33.5Z" fill="url(#paint0_linear_452_1186)"/>
</g>
</g>
<defs>
<linearGradient id="paint0_linear_452_1186" x1="-8.05782e-07" y1="33.5" x2="67" y2="33.5" gradientUnits="userSpaceOnUse">
<stop stop-color="#A7B5FF"/>
<stop offset="1" stop-color="#F3ACFF"/>
</linearGradient>
<clipPath id="clip0_452_1186">
<rect width="67" height="67" fill="white"/>
</clipPath>
</defs>
</svg>
